General
Unique ID                                : 272866968838251533648107611816904232186 (0xCD484440AEB8D164700CDF0B1B760CFA)
Complete name                            : MKV_sample.mkv
Format                                   : Matroska
Format version                           : Version 4
File size                                : 7.77 MiB
Duration                                 : 10 s 0 ms
Overall bit rate mode                    : Variable
Overall bit rate                         : 6 519 kb/s
Frame rate                               : 25.000 FPS
Writing application                      : Lavf58.76.100
Writing library                          : Lavf58.76.100
ErrorDetectionType                       : Per level 1

Video
ID                                       : 3
Format                                   : FFV1
Format version                           : Version 3.4
Format settings, GOP                     : N=1
Format settings, Slice count             : 24 slices per frame
Codec ID                                 : V_MS/VFW/FOURCC / FFV1
Duration                                 : 10 s 0 ms
Bit rate mode                            : Variable
Bit rate                                 : 1 781 kb/s
Width                                    : 720 pixels
Height                                   : 576 pixels
Display aspect ratio                     : 16:9
Frame rate mode                          : Constant
Frame rate                               : 25.000 FPS
Standard                                 : PAL
Color space                              : YUV
Chroma subsampling                       : 4:2:2
Bit depth                                : 10 bits
Scan type                                : Interlaced
Scan order                               : Top Field First
Compression mode                         : Lossless
Bits/(Pixel*Frame)                       : 0.172
Time code of first frame                 : 00:00:09:23
Time code source                         : Matroska tags
Stream size                              : 2.12 MiB (27%)
Writing library                          : Lavc58.54.100 ffv1
Language                                 : English
Default                                  : Yes
Forced                                   : No
Color range                              : Limited
Color primaries                          : BT.601 PAL
Transfer characteristics                 : BT.709
Matrix coefficients                      : BT.470 System B/G
coder_type                               : Range Coder
ErrorDetectionType                       : Per slice

Audio #1
ID                                       : 1
Format                                   : PCM
Format settings                          : Little / Signed
Codec ID                                 : A_PCM/INT/LIT
Duration                                 : 9 s 978 ms
Bit rate mode                            : Constant
Bit rate                                 : 2 304 kb/s
Channel(s)                               : 2 channels
Sampling rate                            : 48.0 kHz
Bit depth                                : 24 bits
Delay relative to video                  : 21 ms
Time code of first frame                 : 00:00:09:23
Time code source                         : Matroska tags
Stream size                              : 2.74 MiB (35%)
Language                                 : English
Default                                  : Yes
Forced                                   : No

Audio #2
ID                                       : 2
Format                                   : PCM
Format settings                          : Little / Signed
Codec ID                                 : A_PCM/INT/LIT
Duration                                 : 9 s 999 ms
Bit rate mode                            : Constant
Bit rate                                 : 2 304 kb/s
Channel(s)                               : 2 channels
Sampling rate                            : 48.0 kHz
Bit depth                                : 24 bits
Time code of first frame                 : 00:00:09:23
Time code source                         : Matroska tags
Stream size                              : 2.75 MiB (35%)
Language                                 : English
Default                                  : No
Forced                                   : No
